<?xml version="1.0" encoding="utf-8"?>
<svg version="1.1" id="Layer_1"
xmlns="http://www.w3.org/2000/svg"
xmlns:xlink="http://www.w3.org/1999/xlink"
width="468px" height="96px"
xml:space="preserve">
<g id="PathID_1" transform="matrix(1.2066, 0, 0, 1.2066, 99.9, 69)" opacity="1">
<path style="fill:#1A84E2;fill-opacity:1" d="M27.85 0Q27.3 -1.85 26.6 -3.8L25.25 -7.65L11.4 -7.65L10.05 -3.8Q9.35 -1.85 8.8 0L0.5 0L4.3 -10.6Q6.1 -15.45 7.8 -19.75Q9.5 -24.05 11.15 -27.9Q12.85 -31.8 14.65 -35.45L22.25 -35.45Q24 -31.8 25.7 -27.9Q27.4 -24.05 29.1 -19.75Q30.8 -15.45 32.6 -10.6L36.4 0L27.85 0M18.25 -27.45L17.5 -25.35L16.3 -22.25L14.85 -18.4L13.25 -14L23.35 -14L21.75 -18.4L20.3 -22.25L19.1 -25.35L18.25 -27.45" />
</g>
<g id="PathID_2" transform="matrix(1.2066, 0, 0, 1.2066, 99.9, 69)" opacity="1">
</g>
<g id="PathID_3" transform="matrix(1.2066, 0, 0, 1.2066, 140.8, 69)" opacity="1">
<path style="fill:#1A84E2;fill-opacity:1" d="M2.3 -13.45Q2.3 -16.35 3.25 -18.95Q4.2 -21.55 6 -23.45Q7.75 -25.4 10.35 -26.5Q12.9 -27.65 16.15 -27.65Q18.3 -27.65 20.1 -27.25Q21.9 -26.85 23.6 -26.15L22 -20.05Q20.95 -20.45 19.65 -20.75Q18.35 -21.1 16.8 -21.1Q13.4 -21.1 11.75 -19Q10.05 -16.9 10.05 -13.45Q10.05 -9.8 11.65 -7.8Q13.2 -5.8 17.1 -5.8Q18.45 -5.8 20.05 -6.1Q21.65 -6.35 23 -6.9L24.05 -0.65Q22.7 -0.1 20.7 0.3Q18.75 0.7 16.3 0.7Q12.65 0.7 9.95 -0.35Q7.3 -1.45 5.6 -3.35Q3.9 -5.25 3.1 -7.85Q2.3 -10.45 2.3 -13.45" />
</g>
<g id="PathID_4" transform="matrix(1.2066, 0, 0, 1.2066, 140.8, 69)" opacity="1">
</g>
<g id="PathID_5" transform="matrix(1.2066, 0, 0, 1.2066, 168.05, 69)" opacity="1">
<path style="fill:#1A84E2;fill-opacity:1" d="M19.8 -20.15L17.4 -20.7Q16 -21 14.45 -21Q13.7 -21 12.7 -20.85L11.2 -20.55L11.2 0L3.55 0L3.55 -25.5Q5.6 -26.2 8.4 -26.85Q11.2 -27.5 14.65 -27.5L16.1 -27.4Q17 -27.35 17.85 -27.2L19.6 -26.9Q20.45 -26.7 21.1 -26.45L19.8 -20.15" />
</g>
<g id="PathID_6" transform="matrix(1.2066, 0, 0, 1.2066, 168.05, 69)" opacity="1">
</g>
<g id="PathID_7" transform="matrix(1.2066, 0, 0, 1.2066, 190.45, 69)" opacity="1">
<path style="fill:#1A84E2;fill-opacity:1" d="M13.85 -5.3L16 -5.35L17.65 -5.5L17.65 -11.3L16.25 -11.5L14.6 -11.6Q13.5 -11.6 12.55 -11.5Q11.6 -11.35 10.9 -11Q10.2 -10.65 9.75 -10Q9.35 -9.4 9.35 -8.5Q9.35 -6.7 10.55 -6Q11.75 -5.3 13.85 -5.3M13.25 -27.65Q16.65 -27.65 18.9 -26.85Q21.15 -26.1 22.5 -24.65Q23.85 -23.25 24.4 -21.2Q24.95 -19.15 24.95 -16.65L24.95 -0.75Q23.35 -0.4 20.4 0.05Q17.5 0.55 13.35 0.55Q10.75 0.55 8.6 0.1Q6.5 -0.35 4.95 -1.4Q3.4 -2.45 2.6 -4.15Q1.8 -5.8 1.8 -8.3Q1.8 -10.65 2.75 -12.3Q3.65 -13.9 5.25 -14.9Q6.85 -15.85 8.9 -16.3Q10.95 -16.75 13.15 -16.75Q14.65 -16.75 15.8 -16.6Q16.95 -16.45 17.65 -16.25L17.65 -17Q17.65 -18.95 16.45 -20.1Q15.3 -21.3 12.4 -21.3Q10.45 -21.3 8.55 -21Q6.65 -20.7 5.25 -20.2L4.3 -26.35L5.95 -26.8L8.15 -27.2Q9.3 -27.4 10.6 -27.5Q11.9 -27.65 13.25 -27.65" />
</g>
<g id="PathID_8" transform="matrix(1.2066, 0, 0, 1.2066, 190.45, 69)" opacity="1">
</g>
<g id="PathID_9" transform="matrix(0.444702, 0, 0, 0.444702, -88.7, -291.05)" opacity="1">
<path style="fill:#56A4EA;fill-opacity:1" d="M395.1 832.35Q396.3 835.35 396.3 838.5Q396.3 841.65 395.1 844.65Q393.9 847.7 391.5 850.1Q389.1 852.45 386.1 853.65Q383.05 854.85 379.95 854.85Q376.8 854.85 373.75 853.65Q370.75 852.45 368.4 850.1L320.2 801.9Q318.7 802.35 317.2 802.65Q315.7 803 314.15 803.25Q312.6 803.5 311 803.6Q309.45 803.75 307.85 803.75Q299.25 803.75 291.7 800.45Q284.15 797.2 278.5 791.6Q272.9 785.95 269.65 778.4Q266.4 770.85 266.4 762.3Q266.4 753.7 269.65 746.15Q272.9 738.6 278.55 732.95Q284.15 727.35 291.7 724.1Q299.25 720.85 307.85 720.85Q316.4 720.85 323.95 724.1Q331.5 727.35 337.15 733Q342.75 738.6 346 746.15Q349.3 753.7 349.3 762.3Q349.3 764.75 349 767.1Q348.7 769.5 348.15 771.8Q347.65 774.1 346.85 776.25Q346.05 778.45 345.1 780.5L391.55 826.95Q393.9 829.3 395.1 832.35" />
</g>
<g id="PathID_10" transform="matrix(0.444702, 0, 0, 0.444702, -88.7, -291.05)" opacity="1">
</g>
<g id="PathID_11" transform="matrix(0.444702, 0, 0, 0.444702, -88.7, -291.05)" opacity="1">
<path style="fill:#1A84E2;fill-opacity:1" d="M269.55 702.6Q262.7 705.3 257.25 710.1Q251.8 714.9 248.35 721.75Q244.9 728.55 244.5 737.25L244.5 784.5Q244.95 791.65 247.55 798.55Q250.2 805.5 255.05 811.05Q259.95 816.65 267.1 820.25Q274.3 823.9 283.9 824.45L284.1 824.45L285.05 824.45L287.35 824.45L291.5 824.4Q306.65 824.05 314 831.05Q321.3 838 322.45 846.55Q323.55 855.05 319.25 862.2Q315 869.4 306.95 869.4L243.5 869.4Q234.35 869.4 226.35 865.9Q218.3 862.45 212.35 856.5Q206.4 850.5 202.95 842.5Q199.5 834.5 199.5 825.4L199.5 698.5Q199.5 689.35 202.95 681.35Q206.4 673.3 212.35 667.35Q218.35 661.4 226.35 657.95Q234.35 654.5 243.5 654.5L370.4 654.5Q379.5 654.5 387.5 657.95Q395.55 661.4 401.5 667.35Q407.45 673.35 410.9 681.35Q414.4 689.35 414.4 698.5L414.4 706.55L414.4 725.8L414.4 748.9L414.4 768.5Q414.4 779 407.5 783.8Q400.6 788.65 392.3 787.25Q383.95 785.85 376.85 778Q369.75 770.15 369.3 755.25Q369.05 748.5 369.05 743.55L369.1 735.45L369.3 730.65L369.4 729.15Q369.5 722.25 367 716.7Q364.55 711.15 359.9 707.3Q355.25 703.45 348.75 701.4Q342.2 699.4 334.25 699.5L283.75 699.5Q276.45 699.9 269.55 702.6" />
</g>
<g id="PathID_12" transform="matrix(0.444702, 0, 0, 0.444702, -88.7, -291.05)" opacity="1">
</g>
<g id="PathID_13" transform="matrix(1.2066, 0, 0, 1.2066, 223.85, 69)" opacity="1">
<path style="fill:#56A4EA;fill-opacity:1" d="M4.4 -35.45L9.35 -35.45L9.35 0L4.4 0L4.4 -35.45" />
</g>
<g id="PathID_14" transform="matrix(1.2066, 0, 0, 1.2066, 223.85, 69)" opacity="1">
</g>
<g id="PathID_15" transform="matrix(1.2066, 0, 0, 1.2066, 236.8, 69)" opacity="1">
<path style="fill:#56A4EA;fill-opacity:1" d="M4.1 -25.85Q5.7 -26.25 8.45 -26.7Q11.15 -27.15 14.7 -27.15Q17.85 -27.15 19.95 -26.3Q22.05 -25.4 23.3 -23.75Q24.55 -22.15 25.1 -19.9Q25.6 -17.65 25.6 -14.95L25.6 0L20.85 0L20.85 -13.9Q20.85 -16.35 20.5 -18.1Q20.15 -19.85 19.4 -20.95Q18.6 -22 17.35 -22.5Q16.05 -23 14.15 -23L12.6 -22.9L11 -22.8L9.7 -22.6L8.85 -22.45L8.85 0L4.1 0L4.1 -25.85" />
</g>
<g id="PathID_16" transform="matrix(1.2066, 0, 0, 1.2066, 236.8, 69)" opacity="1">
</g>
<g id="PathID_17" transform="matrix(1.2066, 0, 0, 1.2066, 268.6, 69)" opacity="1">
<path style="fill:#56A4EA;fill-opacity:1" d="M10.3 -3.4Q13.2 -3.4 14.6 -4.2Q16 -4.95 16 -6.65Q16 -8.4 14.65 -9.4Q13.25 -10.45 10.05 -11.7L7.15 -12.95Q5.7 -13.6 4.7 -14.5Q3.65 -15.35 3.05 -16.6Q2.45 -17.8 2.45 -19.6Q2.45 -23.15 5.05 -25.2Q7.65 -27.3 12.15 -27.3Q13.3 -27.3 14.45 -27.15L16.55 -26.85L18.25 -26.45L19.4 -26.1L18.5 -22Q17.75 -22.4 16.1 -22.85Q14.5 -23.3 12.15 -23.3Q10.2 -23.3 8.7 -22.5Q7.2 -21.7 7.2 -20Q7.2 -19.15 7.55 -18.45Q7.85 -17.8 8.55 -17.25Q9.25 -16.75 10.3 -16.25Q11.3 -15.8 12.75 -15.3Q14.65 -14.6 16.1 -13.9Q17.6 -13.2 18.65 -12.3Q19.7 -11.35 20.25 -10.05Q20.85 -8.75 20.85 -6.85Q20.85 -3.15 18.1 -1.25Q15.35 0.6 10.3 0.6Q6.75 0.6 4.75 0Q2.75 -0.55 2.05 -0.85L2.9 -4.95L5.5 -4.05Q7.3 -3.4 10.3 -3.4" />
</g>
<g id="PathID_18" transform="matrix(1.2066, 0, 0, 1.2066, 268.6, 69)" opacity="1">
</g>
<g id="PathID_19" transform="matrix(1.2066, 0, 0, 1.2066, 292.5, 69)" opacity="1">
<path style="fill:#56A4EA;fill-opacity:1" d="M25.3 -0.75Q23.65 -0.35 20.95 0.1Q18.25 0.55 14.75 0.55Q11.65 0.55 9.55 -0.3Q7.45 -1.2 6.2 -2.85Q4.9 -4.5 4.35 -6.7Q3.8 -8.95 3.8 -11.65L3.8 -26.6L8.55 -26.6L8.55 -12.7Q8.55 -7.8 10.05 -5.7Q11.6 -3.6 15.25 -3.6L16.85 -3.65L18.35 -3.8L19.65 -3.95L20.5 -4.15L20.5 -26.6L25.3 -26.6L25.3 -0.75" />
</g>
<g id="PathID_20" transform="matrix(1.2066, 0, 0, 1.2066, 292.5, 69)" opacity="1">
</g>
<g id="PathID_21" transform="matrix(1.2066, 0, 0, 1.2066, 324.3, 69)" opacity="1">
<path style="fill:#56A4EA;fill-opacity:1" d="M13.9 -27.15L15.3 -27.1L16.9 -26.9L18.3 -26.65L19.25 -26.4L18.4 -22.25L16.55 -22.75Q15.25 -23.05 13.2 -23.05Q11.85 -23.05 10.55 -22.75L8.85 -22.35L8.85 0L4.1 0L4.1 -25.5Q5.75 -26.1 8.3 -26.65Q10.8 -27.15 13.9 -27.15" />
</g>
<g id="PathID_22" transform="matrix(1.2066, 0, 0, 1.2066, 324.3, 69)" opacity="1">
</g>
<g id="PathID_23" transform="matrix(1.2066, 0, 0, 1.2066, 344.45, 69)" opacity="1">
<path style="fill:#56A4EA;fill-opacity:1" d="M13.1 -3.4Q14.8 -3.4 16.1 -3.5Q17.4 -3.55 18.25 -3.8L18.25 -11.7Q17.75 -11.95 16.6 -12.15Q15.45 -12.35 13.8 -12.35Q12.75 -12.35 11.55 -12.15Q10.35 -12 9.35 -11.55Q8.35 -11.05 7.65 -10.2Q7 -9.35 7 -7.95Q7 -5.4 8.65 -4.4Q10.3 -3.4 13.1 -3.4M12.7 -27.3Q15.55 -27.3 17.5 -26.55Q19.5 -25.8 20.7 -24.45Q21.9 -23.1 22.4 -21.2Q22.95 -19.35 22.95 -17.1L22.95 -0.45L21.2 -0.15L18.75 0.15L15.75 0.4Q14.1 0.55 12.55 0.55Q10.3 0.55 8.4 0.1Q6.5 -0.35 5.1 -1.35Q3.75 -2.35 2.95 -4Q2.2 -5.6 2.2 -7.9Q2.2 -10.1 3.1 -11.7Q4 -13.3 5.5 -14.25Q7.05 -15.25 9.1 -15.7Q11.15 -16.15 13.4 -16.15L14.9 -16.1L16.35 -15.9L17.55 -15.65L18.25 -15.5L18.25 -16.85Q18.25 -18 18 -19.15Q17.75 -20.3 17.1 -21.2Q16.4 -22.1 15.25 -22.65Q14.1 -23.2 12.3 -23.2Q9.9 -23.2 8.15 -22.85Q6.4 -22.5 5.5 -22.15L4.95 -26.1Q5.9 -26.5 8.05 -26.9Q10.2 -27.3 12.7 -27.3" />
</g>
<g id="PathID_24" transform="matrix(1.2066, 0, 0, 1.2066, 344.45, 69)" opacity="1">
</g>
<g id="PathID_25" transform="matrix(1.2066, 0, 0, 1.2066, 373.05, 69)" opacity="1">
<path style="fill:#56A4EA;fill-opacity:1" d="M4.1 -25.85Q5.7 -26.25 8.45 -26.7Q11.15 -27.15 14.7 -27.15Q17.85 -27.15 19.95 -26.3Q22.05 -25.4 23.3 -23.75Q24.55 -22.15 25.1 -19.9Q25.6 -17.65 25.6 -14.95L25.6 0L20.85 0L20.85 -13.9Q20.85 -16.35 20.5 -18.1Q20.15 -19.85 19.4 -20.95Q18.6 -22 17.35 -22.5Q16.05 -23 14.15 -23L12.6 -22.9L11 -22.8L9.7 -22.6L8.85 -22.45L8.85 0L4.1 0L4.1 -25.85" />
</g>
<g id="PathID_26" transform="matrix(1.2066, 0, 0, 1.2066, 373.05, 69)" opacity="1">
</g>
<g id="PathID_27" transform="matrix(1.2066, 0, 0, 1.2066, 404.85, 69)" opacity="1">
<path style="fill:#56A4EA;fill-opacity:1" d="M15.65 0.6Q12.45 0.6 10 -0.4Q7.55 -1.4 5.9 -3.25Q4.25 -5.1 3.4 -7.65Q2.6 -10.2 2.6 -13.25Q2.6 -16.3 3.5 -18.9Q4.4 -21.45 6.05 -23.3Q7.65 -25.2 10.05 -26.25Q12.45 -27.3 15.35 -27.3Q17.15 -27.3 18.95 -26.95Q20.7 -26.65 22.35 -26L21.3 -21.95Q20.2 -22.45 18.8 -22.75Q17.4 -23.1 15.8 -23.1Q11.8 -23.1 9.7 -20.55Q7.55 -18.05 7.55 -13.25Q7.55 -11.1 8.05 -9.3Q8.55 -7.5 9.6 -6.25Q10.65 -4.95 12.3 -4.25Q13.9 -3.55 16.25 -3.55Q18.15 -3.55 19.7 -3.95Q21.25 -4.3 22.1 -4.7L22.75 -0.7Q22.35 -0.45 21.6 -0.2L19.85 0.15Q18.9 0.35 17.8 0.45Q16.7 0.6 15.65 0.6" />
</g>
<g id="PathID_28" transform="matrix(1.2066, 0, 0, 1.2066, 404.85, 69)" opacity="1">
</g>
<g id="PathID_29" transform="matrix(1.2066, 0, 0, 1.2066, 429.95, 69)" opacity="1">
<path style="fill:#56A4EA;fill-opacity:1" d="M2.6 -13.25Q2.6 -16.8 3.6 -19.4Q4.65 -22.05 6.35 -23.8Q8.05 -25.55 10.25 -26.4Q12.45 -27.3 14.75 -27.3Q20.1 -27.3 23 -23.9Q25.85 -20.55 25.85 -13.7L25.85 -12.9L25.8 -12L7.55 -12Q7.85 -7.85 9.95 -5.7Q12.05 -3.55 16.55 -3.55Q19.05 -3.55 20.75 -4Q22.45 -4.45 23.35 -4.85L24 -0.85Q23.15 -0.4 20.95 0.1Q18.8 0.6 16 0.6Q12.55 0.6 10 -0.4Q7.45 -1.45 5.8 -3.3Q4.2 -5.15 3.4 -7.7Q2.6 -10.25 2.6 -13.25M20.9 -15.85Q20.95 -19.1 19.25 -21.15Q17.6 -23.25 14.7 -23.25Q13.05 -23.25 11.8 -22.6Q10.55 -21.95 9.65 -20.95Q8.8 -19.9 8.3 -18.55Q7.8 -17.25 7.65 -15.85L20.9 -15.85" />
</g>
<g id="PathID_30" transform="matrix(1.2066, 0, 0, 1.2066, 429.95, 69)" opacity="1">
</g>
</svg>
